<svg width="121" height="32" viewBox="0 0 121 32" fill="none" xmlns="http://www.w3.org/2000/svg">
<path d="M21.3442 19.0145C21.3442 20.3607 20.8117 21.3386 19.7494 21.9635C18.9052 22.4607 17.6938 22.699 16.1136 22.699C14.5363 22.699 13.3255 22.4425 12.4632 21.9075C11.4552 21.2644 10.9385 20.2487 10.9385 18.848V15.4581C12.3512 15.2198 15.381 14.7406 15.381 14.7406V18.9787C15.381 19.2732 15.4348 19.5128 15.5624 19.6958C15.6923 19.8444 15.894 19.9186 16.1513 19.9186C16.4088 19.9186 16.5908 19.8444 16.7201 19.6958C16.85 19.5128 16.9054 19.2732 16.9054 18.9787V15.3311H21.3442V19.0145ZM43.9919 22.4425H39.5694V21.8352C39.3315 22.074 38.9645 22.2767 38.4676 22.4425C38.0089 22.6087 37.4579 22.699 36.8167 22.699C35.8811 22.699 35.091 22.4607 34.4844 21.9635C33.8813 21.4667 33.5859 20.8775 33.5859 20.1743V12.9902C35.0366 12.898 36.5221 12.8072 38.0283 12.733V19.0529C38.0283 19.6053 38.2858 19.882 38.799 19.882C39.0548 19.882 39.2382 19.8264 39.3677 19.6958C39.4954 19.5315 39.5694 19.3273 39.5694 19.0701V12.6414C41.0201 12.5672 42.5048 12.5108 43.9919 12.4567V22.4425ZM50.2327 12.2705V14.6267C50.0362 14.7139 49.8905 14.8079 49.7918 14.907C49.5723 15.1277 49.4605 15.4053 49.4605 15.7369V19.0529C49.4605 19.3273 49.5344 19.5315 49.6639 19.6958C49.8024 19.8206 49.9914 19.8787 50.2327 19.882V22.587C49.8272 22.6668 49.3148 22.699 48.6722 22.699C47.3512 22.699 46.4149 22.4607 45.8459 21.9999C45.2951 21.5208 45.0197 20.8033 45.0197 19.8444V16.1968C45.0197 14.7406 46.0118 13.5243 47.9933 12.5672C48.195 12.475 48.3984 12.3825 48.5802 12.3089L50.2327 12.2705ZM32.7975 19.0145C32.7975 20.1743 32.4107 21.0606 31.6783 21.6686L32.8699 23.899H29.1991L28.5571 22.681C28.2635 22.699 27.9719 22.699 27.6386 22.699C26.0441 22.699 24.815 22.4425 23.9324 21.9075C22.8867 21.2644 22.3743 20.2487 22.3743 18.848V13.9492C23.8228 13.7834 25.3097 13.655 26.8148 13.5072V18.9787C26.8148 19.2732 26.8685 19.5128 26.9982 19.6958C27.126 19.8444 27.3274 19.9186 27.5867 19.9186C27.842 19.9186 28.0256 19.8444 28.1536 19.6958C28.2837 19.5128 28.357 19.2732 28.357 18.9787V13.3765C29.8077 13.2678 31.2749 13.156 32.7975 13.0458V19.0145ZM65.2447 22.4425H62.4367C60.5089 22.4425 59.3352 22.1857 58.8945 21.6686C58.4552 21.134 58.2518 19.9362 58.2518 18.0567V12.1622L60.5645 12.1423L62.694 12.1622V18.0222C62.694 18.5531 62.8761 18.9223 63.2264 19.1443C63.4824 19.2908 63.8877 19.365 64.4188 19.365H65.2447V22.4425ZM81.8914 12.6586V22.4425H77.4487V12.475C78.9542 12.5288 80.4225 12.5852 81.8914 12.6586ZM76.5868 19.0145C76.5868 20.3788 76.0725 21.3727 75.0458 21.9635C74.2192 22.4607 73.0264 22.699 71.4476 22.699C69.8509 22.699 68.6038 22.4425 67.7393 21.9075C66.6955 21.2644 66.1624 20.2487 66.1624 18.848V12.1802C67.6675 12.1987 69.1545 12.2347 70.6046 12.2543V18.9787C70.6046 19.2732 70.6775 19.5128 70.8048 19.6958C70.9341 19.8444 71.1166 19.9186 71.3758 19.9186C71.6312 19.9186 71.8346 19.8444 71.9626 19.6958C72.0901 19.5128 72.1455 19.2732 72.1455 18.9787V12.2901C73.6489 12.3287 75.1199 12.3825 76.5868 12.4366V19.0145ZM93.2335 22.4425H88.7923V13.0816C90.295 13.1757 91.784 13.3042 93.2335 13.4149V22.4425ZM50.2327 22.587V19.882H50.2689C50.4719 19.882 50.654 19.8264 50.7636 19.6958C50.9311 19.5315 51.0028 19.3273 51.0028 19.0529V14.3725C50.6951 14.4482 50.4359 14.5327 50.2327 14.6267V12.2705C51.9477 12.2294 53.6814 12.1951 55.4441 12.1802V22.4425H51.5176V21.7428C51.2961 22.1484 50.9673 22.4049 50.5257 22.5167C50.4342 22.5424 50.337 22.565 50.2327 22.587ZM99.3352 14.0055V14.629C99.1409 14.715 98.9911 14.8098 98.8851 14.907C98.6653 15.1277 98.5735 15.4053 98.5735 15.7369V19.0529C98.5735 19.3273 98.6296 19.5315 98.7554 19.6958C98.8974 19.8225 99.0924 19.8787 99.3352 19.882V22.587C98.9357 22.6668 98.4079 22.699 97.7655 22.699C96.4436 22.699 95.5084 22.4607 94.957 21.9999C94.4067 21.5208 94.1315 20.8033 94.1315 19.8444V16.1968C94.1315 15.2198 94.5543 14.3725 95.4345 13.6168C96.7614 13.7399 98.0607 13.8697 99.3352 14.0055ZM110.063 22.4425H105.622V14.7772C107.163 14.9814 108.648 15.2019 110.063 15.4402V22.4425ZM99.3352 22.587V19.882H99.3622C99.5818 19.882 99.7474 19.8264 99.8771 19.6958C100.023 19.5315 100.096 19.3273 100.096 19.0529V14.3725C99.7948 14.4482 99.5404 14.5327 99.3352 14.629V14.0055C101.126 14.1991 102.863 14.4051 104.539 14.6326V22.4425H100.61V21.7428C100.39 22.1484 100.06 22.4049 99.6212 22.5167C99.5313 22.5424 99.438 22.565 99.3352 22.587Z" fill="white"/>
<path d="M16.1407 14.3C9.78847 15.1914 4.32184 16.2641 0 17.4855C2.62957 16.3216 6.35037 15.2667 10.9409 14.3362V7.97863C10.9409 6.61596 11.4358 5.60248 12.4434 4.97585C13.3074 4.40466 14.5352 4.12797 16.1153 4.12797L16.1407 4.12985V6.94754C15.9267 6.95091 15.7447 7.04271 15.6003 7.18714C15.4529 7.33382 15.3827 7.55413 15.3827 7.85087V12.014H16.1407V14.3ZM27.5851 12.9861C26.2318 13.1092 24.9031 13.2397 23.6032 13.3784C21.0029 13.6567 18.5092 13.966 16.1407 14.3V12.014H16.9037V7.85087C16.9037 7.55413 16.85 7.33382 16.7201 7.18714C16.5906 7.04083 16.409 6.94754 16.1515 6.94754H16.1407V4.12985C17.6908 4.13134 18.891 4.38968 19.7482 4.86494C20.8134 5.47228 21.3442 6.44961 21.3442 7.81434V12.6448C21.6863 12.6013 22.0285 12.5576 22.3741 12.5161V7.97863C22.3741 6.61596 22.887 5.60248 23.9329 4.97585C24.8208 4.4116 26.0337 4.13565 27.5851 4.12985V6.94754C27.3658 6.94754 27.1822 7.04083 27.0342 7.18714C26.887 7.33382 26.8148 7.55413 26.8148 7.85087V12.0086L27.5851 11.9312V12.9861ZM39.5695 10.9876V4.25798H43.9922V10.7579C44.3882 10.7422 44.7859 10.722 45.1856 10.7055V7.81434C45.1856 6.46815 45.7181 5.4927 46.82 4.86494C47.6337 4.41347 48.7767 4.1587 50.2308 4.13134V6.94754C50.0114 6.94754 49.8278 7.04083 49.6819 7.18714C49.5344 7.33382 49.4628 7.55413 49.4628 7.85087V10.5537L50.2308 10.5322V11.7019C42.1652 11.9076 34.5352 12.3484 27.5851 12.9861V11.9312L28.3552 11.8551V7.85087C28.3552 7.55413 28.2835 7.33382 28.1542 7.18714C28.026 7.04083 27.8426 6.94754 27.5851 6.94754V4.12985L27.6409 4.12797C29.0904 4.12797 30.3014 4.46068 31.2932 5.10567C32.2852 5.71338 32.7981 6.61596 32.7981 7.81434V11.4578C33.0612 11.4381 33.3238 11.4143 33.5882 11.3945V4.25798H38.027V11.0824C38.5379 11.049 39.0528 11.0166 39.5695 10.9876ZM50.2308 4.13134C50.3172 4.12985 50.4038 4.12797 50.4902 4.12797C52.0674 4.12797 53.2428 4.40466 54.0328 4.93913C54.9667 5.54647 55.4457 6.58055 55.4457 7.97863V10.4278C56.3741 10.4132 57.3104 10.404 58.2535 10.3986V6.94754H56.2718V4.25798H58.2535V0.609645H62.6948V4.25798H65.0808V6.94754H62.6948V10.3986C63.8588 10.4055 65.0148 10.4168 66.1626 10.4363V7.97863C66.1626 6.61596 66.6957 5.60248 67.7399 4.97585C68.6274 4.41516 69.8319 4.13678 71.376 4.12985V6.94754C71.172 6.94754 70.9905 7.04083 70.8432 7.18714C70.6953 7.33382 70.6048 7.55413 70.6048 7.85087V10.5288L71.376 10.55V11.7176C67.8295 11.6217 64.201 11.5713 60.509 11.5713C57.0207 11.5713 53.5878 11.6167 50.2308 11.7019V10.5322L51.0034 10.5131V7.85087C51.0034 7.55413 50.9295 7.33382 50.8018 7.18714C50.672 7.04083 50.4902 6.94754 50.2308 6.94754V4.13134ZM71.376 4.12985L71.4501 4.12797C72.8966 4.12797 74.1098 4.46068 75.0818 5.10567C76.0925 5.71338 76.587 6.61596 76.587 7.81434V10.7403C76.8749 10.7527 77.1628 10.7656 77.4511 10.7776V4.25798H81.8916V4.86494C82.0859 4.71152 82.3395 4.57064 82.6511 4.45356V7.02116C82.399 7.02116 82.2025 7.07736 82.0752 7.2055C81.9456 7.33382 81.8916 7.53596 81.8916 7.81434V11.0133L82.6511 11.062V12.1892C79.0135 11.9818 75.244 11.8218 71.376 11.7176V10.55L72.1457 10.5725V7.85087C72.1457 7.55413 72.0903 7.33382 71.9621 7.18714C71.8348 7.04083 71.6314 6.94754 71.376 6.94754V4.12985ZM91.0121 3.2623H88.7904V5.97414e-05H91.0121V3.2623ZM82.6511 4.45356C82.7539 4.41703 82.8614 4.38087 82.9754 4.35015C83.4682 4.20234 84.0192 4.12797 84.644 4.12797C85.5813 4.12797 86.3321 4.38631 86.9375 4.90335C87.5615 5.39978 87.857 6.0075 87.857 6.72874V11.4305C88.1685 11.4542 88.4808 11.4797 88.7902 11.5065V4.25798H91.0121V12.7746C88.314 12.5507 85.5238 12.3553 82.6511 12.1892V11.062L83.4139 11.1088V7.85087C83.4139 7.29804 83.1749 7.02116 82.6614 7.02116H82.6511V4.45356ZM91.0121 3.2623H93.233V5.97414e-05H91.0121V3.2623ZM91.0121 4.25798H93.233V11.9127C94.6948 12.0593 96.1223 12.2144 97.5084 12.3791C99.2256 11.5237 100.098 10.9057 100.098 10.5399V7.85087C100.098 7.55413 100.041 7.33382 99.9127 7.18714C99.7834 7.04083 99.5832 6.94754 99.3262 6.94754C99.1243 6.94754 98.9407 7.04083 98.7939 7.18714C98.6481 7.33382 98.574 7.55413 98.574 7.85087V11.4432H94.2787V7.81434C94.2787 6.46815 94.8301 5.4927 95.9122 4.86494C96.7933 4.38631 98.0055 4.12797 99.5832 4.12797C101.16 4.12797 102.336 4.40466 103.125 4.93913C104.06 5.54647 104.537 6.58055 104.537 7.97863V13.3422C104.611 13.3527 104.685 13.3677 104.757 13.3784C105.049 13.4233 105.336 13.4724 105.623 13.5192V0.000434204H110.061V14.3362C114.652 15.2667 118.372 16.3216 121 17.4855C115.073 15.8086 106.978 14.4079 97.3987 13.3784C95.3377 13.1577 93.205 12.9569 91.0121 12.7746V4.25798Z" fill="white"/>
<path d="M78.5406 29.4845L78.9868 28.0495C79.0913 27.7025 79.1762 27.2975 79.2626 26.9581H79.2779C79.3646 27.2975 79.462 27.6956 79.5716 28.048L80.0295 29.4845H78.5406ZM80.2086 30.2865L80.7346 31.9402H81.871L79.9853 26.1128H78.6343L76.7748 31.9402H77.8679L78.3659 30.2865H80.2086ZM73.2955 31.9402H74.3542V26.1138H73.2955V31.9402ZM70.5737 28.7237H68.5232V29.5624H69.5513V31.0154C69.4121 31.0856 69.1283 31.1364 68.7484 31.1364C67.5428 31.1364 66.7327 30.3486 66.7327 29.0257C66.7327 27.6686 67.6019 26.9332 68.8421 26.9332C69.4545 26.9332 69.8408 27.0448 70.16 27.1838L70.3937 26.3198C70.1253 26.1992 69.567 26.0506 68.8512 26.0506C66.9302 26.0506 65.6219 27.2368 65.6219 29.078C65.6124 29.9597 65.9153 30.7299 66.4319 31.2213C66.9828 31.7486 67.7243 32 68.707 32C69.4806 32 70.2026 31.81 70.5737 31.671V28.7237ZM60.4376 26.9251C60.5399 26.8983 60.7567 26.8728 61.0911 26.8728C61.7806 26.8728 62.2286 27.1677 62.2286 27.8076C62.2286 28.3873 61.7806 28.7692 61.0661 28.7692H60.4376V26.9251ZM59.3884 31.9402H60.4376V29.5437H60.9724C61.5749 29.5624 61.8511 29.8043 62.014 30.565C62.1782 31.2898 62.3144 31.7651 62.4012 31.9402H63.496C63.3734 31.7145 63.2185 31.041 63.0386 30.3136C62.8931 29.752 62.6428 29.3455 62.2286 29.19V29.1647C62.7707 28.9656 63.2803 28.456 63.2803 27.7044C63.2803 27.2093 63.0995 26.8026 62.7793 26.537C62.3926 26.2061 61.8255 26.0711 60.9886 26.0711C60.3766 26.0711 59.7825 26.1216 59.3884 26.1904V31.9402ZM56.5623 28.4907H54.3754V26.9836H56.6918V26.1128H53.3173V31.9402H56.8215V31.0658H54.3754V29.3547H56.5623V28.4907ZM46.8319 31.9402V29.8569C46.8319 28.8951 46.824 28.1256 46.7791 27.3758L46.8044 27.3646C47.0905 28.0227 47.4775 28.7402 47.8485 29.3704L49.3642 31.9402H50.4569V26.1128H49.4756V28.1454C49.4756 29.0349 49.5027 29.7881 49.5713 30.565H49.553C49.2868 29.9341 48.9498 29.2606 48.563 28.6119L47.0657 26.1128H45.8595V31.9402H46.8319ZM43.0334 28.4907H40.8465V26.9836H43.1629V26.1128H39.7881V31.9402H43.2926V31.0658H40.8465V29.3547H43.0334V28.4907Z" fill="white"/>
<path d="M93.2326 0H88.79V3.26224H93.2326V0Z" fill="white"/>
</svg>
